

v -1.37638 0 0.262866
v -1.11352 -0.809017 -0.262866
v -1.11352 0.809017 -0.262866
v -0.850651 0 1.11352
v -0.688191 -0.5 -1.11352
v -0.688191 0.5 -1.11352
v -0.425325 -1.30902 0.262866
v -0.425325 1.30902 0.262866
v -0.262866 -0.809017 1.11352
v -0.262866 0.809017 1.11352
v 0.262866 -0.809017 -1.11352
v 0.262866 0.809017 -1.11352
v 0.425325 -1.30902 -0.262866
v 0.425325 1.30902 -0.262866
v 0.688191 -0.5 1.11352
v 0.688191 0.5 1.11352
v 0.850651 0 -1.11352
v 1.11352 -0.809017 0.262866
v 1.11352 0.809017 0.262866
v 1.37638 0 -0.262866

f 2 1 3 6 5
f 4 1 2 7 9
f 3 1 4 10 8
f 11 13 7 2 5
f 6 3 8 14 12
f 15 16 10 4 9
f 12 17 11 5 6
f 9 7 13 18 15
f 16 19 14 8 10
f 13 11 17 20 18
f 19 20 17 12 14
f 16 15 18 20 19